<svg width="34" height="42" viewBox="0 0 34 42" fill="none" xmlns="http://www.w3.org/2000/svg">
<path fill-rule="evenodd" clip-rule="evenodd" d="M6.76267 0H20.8046L32.7057 12.4048V36.5322C32.7057 39.5547 30.2604 42 27.2484 42H6.76267C3.74019 42 1.29492 39.5547 1.29492 36.5322V5.46775C1.29487 2.44527 3.74014 0 6.76267 0Z" fill="#4086F4"/>
<path opacity="0.302" fill-rule="evenodd" clip-rule="evenodd" d="M20.793 0V12.3104H32.7045L20.793 0Z" fill="white"/>
<path d="M9.57813 32.3722H7V25.0994H9.59943C10.331 25.0994 10.9607 25.245 11.4886 25.5362C12.0166 25.825 12.4226 26.2405 12.7067 26.7827C12.9931 27.3248 13.1364 27.9735 13.1364 28.7287C13.1364 29.4863 12.9931 30.1373 12.7067 30.6818C12.4226 31.2263 12.0142 31.6442 11.4815 31.9354C10.9512 32.2266 10.3168 32.3722 9.57813 32.3722ZM8.53764 31.0547H9.5142C9.96875 31.0547 10.3511 30.9742 10.6612 30.8132C10.9737 30.6499 11.2081 30.3977 11.3643 30.0568C11.523 29.7135 11.6023 29.2708 11.6023 28.7287C11.6023 28.1913 11.523 27.7521 11.3643 27.4112C11.2081 27.0703 10.9749 26.8194 10.6648 26.6584C10.3546 26.4974 9.9723 26.4169 9.51776 26.4169H8.53764V31.0547Z" fill="white"/>
<path d="M20.6586 28.7358C20.6586 29.5289 20.5083 30.2036 20.2076 30.7599C19.9093 31.3163 19.5021 31.7412 18.986 32.0348C18.4723 32.326 17.8947 32.4716 17.2531 32.4716C16.6068 32.4716 16.0268 32.3248 15.513 32.0313C14.9993 31.7377 14.5933 31.3127 14.295 30.7564C13.9967 30.2 13.8475 29.5265 13.8475 28.7358C13.8475 27.9427 13.9967 27.268 14.295 26.7116C14.5933 26.1553 14.9993 25.7315 15.513 25.4403C16.0268 25.1468 16.6068 25 17.2531 25C17.8947 25 18.4723 25.1468 18.986 25.4403C19.5021 25.7315 19.9093 26.1553 20.2076 26.7116C20.5083 27.268 20.6586 27.9427 20.6586 28.7358ZM19.0997 28.7358C19.0997 28.2221 19.0227 27.7888 18.8689 27.4361C18.7173 27.0833 18.5031 26.8158 18.2261 26.6335C17.9491 26.4512 17.6248 26.3601 17.2531 26.3601C16.8814 26.3601 16.5571 26.4512 16.2801 26.6335C16.0031 26.8158 15.7877 27.0833 15.6338 27.4361C15.4823 27.7888 15.4065 28.2221 15.4065 28.7358C15.4065 29.2495 15.4823 29.6828 15.6338 30.0355C15.7877 30.3883 16.0031 30.6558 16.2801 30.8381C16.5571 31.0204 16.8814 31.1115 17.2531 31.1115C17.6248 31.1115 17.9491 31.0204 18.2261 30.8381C18.5031 30.6558 18.7173 30.3883 18.8689 30.0355C19.0227 29.6828 19.0997 29.2495 19.0997 28.7358Z" fill="white"/>
<path d="M27.9146 27.6456H26.3592C26.3308 27.4444 26.2728 27.2656 26.1852 27.1094C26.0976 26.9508 25.9851 26.8158 25.8478 26.7045C25.7105 26.5933 25.5519 26.508 25.3719 26.4489C25.1944 26.3897 25.0014 26.3601 24.7931 26.3601C24.4167 26.3601 24.0888 26.4536 23.8094 26.6406C23.5301 26.8253 23.3135 27.0952 23.1596 27.4503C23.0057 27.803 22.9288 28.2315 22.9288 28.7358C22.9288 29.2543 23.0057 29.6899 23.1596 30.0426C23.3158 30.3954 23.5336 30.6617 23.813 30.8416C24.0924 31.0215 24.4155 31.1115 24.7825 31.1115C24.9884 31.1115 25.179 31.0843 25.3542 31.0298C25.5317 30.9754 25.6892 30.8961 25.8265 30.7919C25.9638 30.6854 26.0774 30.5563 26.1674 30.4048C26.2597 30.2533 26.3237 30.0805 26.3592 29.8864L27.9146 29.8935C27.8743 30.2273 27.7737 30.5492 27.6127 30.8594C27.4541 31.1671 27.2398 31.4429 26.97 31.6868C26.7024 31.9283 26.3828 32.12 26.0112 32.2621C25.6418 32.4018 25.224 32.4716 24.7576 32.4716C24.1089 32.4716 23.5289 32.3248 23.0175 32.0313C22.5085 31.7377 22.1061 31.3127 21.8102 30.7564C21.5166 30.2 21.3698 29.5265 21.3698 28.7358C21.3698 27.9427 21.519 27.268 21.8173 26.7116C22.1156 26.1553 22.5204 25.7315 23.0317 25.4403C23.5431 25.1468 24.1184 25 24.7576 25C25.179 25 25.5696 25.0592 25.9295 25.1776C26.2917 25.2959 26.6125 25.4688 26.8918 25.696C27.1712 25.9209 27.3985 26.1967 27.5737 26.5234C27.7512 26.8501 27.8648 27.2242 27.9146 27.6456Z" fill="white"/>
</svg>
