<svg width="152" height="152" viewBox="0 0 152 152" fill="none" xmlns="http://www.w3.org/2000/svg">
<path d="M113.999 32.5717H92.2852V10.8574" fill="#D7D8DA"/>
<path d="M143.857 78.714C143.843 71.0242 141.111 63.5868 136.144 57.7161C131.177 51.8454 124.295 47.9192 116.714 46.6312V32.5712C116.715 32.2145 116.645 31.8612 116.509 31.5314C116.373 31.2017 116.173 30.902 115.921 30.6494L94.2072 8.93515C93.9546 8.68326 93.6549 8.48361 93.3252 8.34761C92.9954 8.21162 92.6421 8.14195 92.2854 8.14258H27.1426C26.4227 8.14258 25.7323 8.42855 25.2233 8.93758C24.7143 9.44661 24.4283 10.137 24.4283 10.8569V24.4283H10.8569C10.137 24.4283 9.4466 24.7143 8.93757 25.2233C8.42855 25.7323 8.14258 26.4227 8.14258 27.1426V141.143C8.14258 141.862 8.42855 142.553 8.93757 143.062C9.4466 143.571 10.137 143.857 10.8569 143.857H103.143C103.862 143.857 104.553 143.571 105.062 143.062C105.571 142.553 105.857 141.862 105.857 141.143V127.571H114C114.72 127.571 115.41 127.285 115.919 126.776C116.428 126.267 116.714 125.577 116.714 124.857V110.797C124.295 109.509 131.177 105.583 136.144 99.7119C141.111 93.8412 143.843 86.4039 143.857 78.714ZM94.9997 17.4092L107.447 29.8569H94.9997V17.4092ZM100.428 138.428H13.5711V29.8569H24.4283V124.857C24.4283 125.577 24.7143 126.267 25.2233 126.776C25.7323 127.285 26.4227 127.571 27.1426 127.571H100.428V138.428ZM111.285 122.143H29.8569V13.5712H89.5712V32.5712C89.5712 33.291 89.8571 33.9814 90.3661 34.4904C90.8752 34.9995 91.5656 35.2854 92.2854 35.2854H111.285V46.1426C102.647 46.1426 94.3623 49.5742 88.254 55.6825C82.1456 61.7909 78.714 70.0755 78.714 78.714C78.714 87.3525 82.1456 95.6372 88.254 101.745C94.3623 107.854 102.647 111.285 111.285 111.285V122.143ZM111.285 105.857C105.917 105.857 100.669 104.265 96.2057 101.282C91.7421 98.3 88.2631 94.0609 86.2087 89.1011C84.1543 84.1414 83.6168 78.6839 84.6641 73.4187C85.7114 68.1535 88.2965 63.3171 92.0925 59.5211C95.8885 55.7251 100.725 53.14 105.99 52.0927C111.255 51.0454 116.713 51.5829 121.673 53.6373C126.632 55.6917 130.871 59.1706 133.854 63.6343C136.836 68.0979 138.428 73.3457 138.428 78.714C138.42 85.9101 135.557 92.809 130.469 97.8974C125.38 102.986 118.482 105.848 111.285 105.857Z" fill="#D7D8DA"/>
<path d="M124.065 65.9361C123.813 65.6833 123.513 65.4828 123.183 65.3459C122.853 65.2091 122.5 65.1387 122.143 65.1387C121.786 65.1387 121.432 65.2091 121.103 65.3459C120.773 65.4828 120.473 65.6833 120.221 65.9361L111.286 74.877L102.35 65.9361C101.841 65.4264 101.149 65.1401 100.429 65.1401C99.7079 65.1401 99.0166 65.4264 98.5069 65.9361C97.9973 66.4458 97.7109 67.137 97.7109 67.8578C97.7109 68.5786 97.9973 69.2699 98.5069 69.7795L107.448 78.715L98.5069 87.6504C97.9973 88.1601 97.7109 88.8513 97.7109 89.5721C97.7109 90.2929 97.9973 90.9841 98.5069 91.4938C99.0166 92.0035 99.7079 92.2898 100.429 92.2898C101.149 92.2898 101.841 92.0035 102.35 91.4938L111.286 82.553L120.221 91.4938C120.731 92.0035 121.422 92.2898 122.143 92.2898C122.864 92.2898 123.555 92.0035 124.065 91.4938C124.574 90.9841 124.861 90.2929 124.861 89.5721C124.861 88.8513 124.574 88.1601 124.065 87.6504L115.124 78.715L124.065 69.7795C124.317 69.5274 124.518 69.2279 124.655 68.8981C124.792 68.5683 124.862 68.2148 124.862 67.8578C124.862 67.5008 124.792 67.1473 124.655 66.8175C124.518 66.4878 124.317 66.1882 124.065 65.9361Z" fill="#D7D8DA"/>
<path d="M43.4291 29.8563H76.0006C76.7204 29.8563 77.4108 29.5703 77.9198 29.0613C78.4289 28.5523 78.7148 27.8619 78.7148 27.142C78.7148 26.4221 78.4289 25.7318 77.9198 25.2227C77.4108 24.7137 76.7204 24.4277 76.0006 24.4277H43.4291C42.7093 24.4277 42.0189 24.7137 41.5098 25.2227C41.0008 25.7318 40.7148 26.4221 40.7148 27.142C40.7148 27.8619 41.0008 28.5523 41.5098 29.0613C42.0189 29.5703 42.7093 29.8563 43.4291 29.8563Z" fill="#D7D8DA"/>
<path d="M76.0006 40.7148H43.4291C42.7093 40.7148 42.0189 41.0008 41.5098 41.5098C41.0008 42.0189 40.7148 42.7093 40.7148 43.4291C40.7148 44.149 41.0008 44.8394 41.5098 45.3484C42.0189 45.8574 42.7093 46.1434 43.4291 46.1434H76.0006C76.7204 46.1434 77.4108 45.8574 77.9198 45.3484C78.4289 44.8394 78.7148 44.149 78.7148 43.4291C78.7148 42.7093 78.4289 42.0189 77.9198 41.5098C77.4108 41.0008 76.7204 40.7148 76.0006 40.7148Z" fill="#D7D8DA"/>
<path d="M59.7148 57H43.4291C42.7093 57 42.0189 57.286 41.5098 57.795C41.0008 58.304 40.7148 58.9944 40.7148 59.7143C40.7148 60.4342 41.0008 61.1246 41.5098 61.6336C42.0189 62.1426 42.7093 62.4286 43.4291 62.4286H59.7148C60.4347 62.4286 61.1251 62.1426 61.6341 61.6336C62.1432 61.1246 62.4291 60.4342 62.4291 59.7143C62.4291 58.9944 62.1432 58.304 61.6341 57.795C61.1251 57.286 60.4347 57 59.7148 57Z" fill="#D7D8DA"/>
<path d="M56.2075 74.0787C55.9554 73.8259 55.6558 73.6254 55.3261 73.4885C54.9963 73.3517 54.6428 73.2812 54.2858 73.2812C53.9288 73.2812 53.5753 73.3517 53.2455 73.4885C52.9157 73.6254 52.6162 73.8259 52.3641 74.0787L48.8572 77.591L45.3504 74.0787C44.8407 73.569 44.1494 73.2827 43.4287 73.2827C42.7079 73.2827 42.0166 73.569 41.5069 74.0787C40.9973 74.5883 40.7109 75.2796 40.7109 76.0004C40.7109 76.7212 40.9973 77.4124 41.5069 77.9221L45.0192 81.429L41.5069 84.9358C40.9973 85.4455 40.7109 86.1367 40.7109 86.8575C40.7109 87.5783 40.9973 88.2696 41.5069 88.7792C42.0166 89.2889 42.7079 89.5752 43.4287 89.5752C44.1494 89.5752 44.8407 89.2889 45.3504 88.7792L48.8572 85.267L52.3641 88.7792C52.8738 89.2889 53.565 89.5752 54.2858 89.5752C55.0066 89.5752 55.6978 89.2889 56.2075 88.7792C56.7172 88.2696 57.0035 87.5783 57.0035 86.8575C57.0035 86.1367 56.7172 85.4455 56.2075 84.9358L52.6952 81.429L56.2075 77.9221C56.4603 77.67 56.6608 77.3704 56.7977 77.0407C56.9345 76.7109 57.0049 76.3574 57.0049 76.0004C57.0049 75.6434 56.9345 75.2899 56.7977 74.9601C56.6608 74.6303 56.4603 74.3308 56.2075 74.0787Z" fill="#D7D8DA"/>
<path d="M56.2075 95.7916C55.9554 95.5388 55.6558 95.3382 55.3261 95.2014C54.9963 95.0646 54.6428 94.9941 54.2858 94.9941C53.9288 94.9941 53.5753 95.0646 53.2455 95.2014C52.9157 95.3382 52.6162 95.5388 52.3641 95.7916L48.8572 99.3039L45.3504 95.7916C44.8407 95.2819 44.1494 94.9956 43.4287 94.9956C42.7079 94.9956 42.0166 95.2819 41.5069 95.7916C40.9973 96.3012 40.7109 96.9925 40.7109 97.7133C40.7109 98.4341 40.9973 99.1253 41.5069 99.635L45.0192 103.142L41.5069 106.649C40.9973 107.158 40.7109 107.85 40.7109 108.57C40.7109 109.291 40.9973 109.982 41.5069 110.492C42.0166 111.002 42.7079 111.288 43.4287 111.288C44.1494 111.288 44.8407 111.002 45.3504 110.492L48.8572 106.98L52.3641 110.492C52.8738 111.002 53.565 111.288 54.2858 111.288C55.0066 111.288 55.6978 111.002 56.2075 110.492C56.7172 109.982 57.0035 109.291 57.0035 108.57C57.0035 107.85 56.7172 107.158 56.2075 106.649L52.6952 103.142L56.2075 99.635C56.4603 99.3829 56.6608 99.0833 56.7977 98.7536C56.9345 98.4238 57.0049 98.0703 57.0049 97.7133C57.0049 97.3563 56.9345 97.0027 56.7977 96.673C56.6608 96.3432 56.4603 96.0437 56.2075 95.7916Z" fill="#D7D8DA"/>
</svg>
