<svg width="220" height="153" viewBox="0 0 220 153" fill="none" xmlns="http://www.w3.org/2000/svg">
<g clip-path="url(#clip0_688_723)">
<path d="M95.8303 124.118C94.4216 124.12 93.0216 123.896 91.6844 123.453C86.3123 121.695 81.6094 118.33 78.2118 113.812C72.7048 106.323 70.8232 95.2781 75.6527 86.1082C78.2442 81.3362 82.2797 77.5071 87.181 75.1695C87.3387 75.0896 87.4648 74.9588 87.5388 74.7983C87.6128 74.6377 87.6304 74.4569 87.5887 74.2851C86.9859 71.6682 87.0726 68.9396 87.8403 66.3662C88.6079 63.7928 90.0303 61.4627 91.9683 59.6037C93.9063 57.7448 96.2936 56.4205 98.8967 55.7606C101.5 55.1006 104.23 55.1275 106.819 55.8386C106.902 55.8623 106.99 55.8549 107.067 55.818C107.145 55.781 107.206 55.717 107.239 55.6379C114.057 39.7066 129.23 29.1756 145.738 28.8871C165.182 28.5422 183.095 42.4727 188.094 62.6628C188.111 62.7303 188.147 62.7914 188.198 62.8383C188.25 62.8852 188.314 62.9158 188.383 62.9262C191.211 63.4154 203.028 65.8616 210.009 76.6623C217.667 88.5104 215.654 104.423 207.049 114.295C203.549 118.247 199.097 121.238 194.115 122.982C192.211 123.664 190.204 124.012 188.182 124.011L95.8303 124.118Z" stroke="#D7D8DA" stroke-width="3.7633" stroke-miterlimit="10"/>
<circle cx="186.1" cy="55.1" r="12.1" fill="white"/>
<path d="M185 34.75C181.193 34.75 177.471 35.879 174.305 37.9942C171.14 40.1094 168.672 43.1159 167.215 46.6333C165.758 50.1508 165.377 54.0214 166.12 57.7555C166.863 61.4896 168.696 64.9196 171.388 67.6118C174.08 70.304 177.51 72.1374 181.245 72.8801C184.979 73.6229 188.849 73.2417 192.367 71.7847C195.884 70.3277 198.891 67.8604 201.006 64.6947C203.121 61.5291 204.25 57.8073 204.25 54C204.25 48.8946 202.222 43.9983 198.612 40.3882C195.002 36.7781 190.105 34.75 185 34.75ZM182.25 61.6863L175.375 54.8113L177.561 52.625L182.25 57.3137L192.439 47.125L194.633 49.3058L182.25 61.6863Z" fill="#F32C40"/>
</g>
<defs>
<clipPath id="clip0_688_723">
<rect width="145.64" height="99" fill="white" transform="translate(71 27)"/>
</clipPath>
</defs>
</svg>
