<svg width="152" height="152" viewBox="0 0 152 152" fill="none" xmlns="http://www.w3.org/2000/svg">
<path d="M141.188 49.115C136.191 43.511 129.444 39.7639 122.046 38.4839C119.696 29.4842 114.623 21.4302 107.521 15.4236C100.419 9.41697 91.6353 5.75108 82.3705 4.92737C73.1056 4.10367 63.8126 6.16237 55.7624 10.8219C47.7123 15.4814 41.2982 22.5141 37.3976 30.9581C36.8068 30.9027 36.2161 30.875 35.6253 30.875C30.5879 30.8806 25.7585 32.8842 22.1965 36.4462C18.6345 40.0082 16.6309 44.8376 16.6253 49.875C16.6253 50.3411 16.6431 50.8131 16.6787 51.2822C11.234 54.4104 6.97462 59.2491 4.56226 65.0467C2.1499 70.8442 1.71957 77.2762 3.33809 83.3434C4.95661 89.4107 8.5334 94.7737 13.5129 98.5994C18.4924 102.425 24.5959 104.499 30.8753 104.5H66.5003V118.75H57.0003C56.5527 118.75 56.1142 118.876 55.7352 119.114C55.3562 119.352 55.0523 119.693 54.8583 120.096C54.6644 120.499 54.5884 120.949 54.6391 121.394C54.6898 121.839 54.8651 122.26 55.1448 122.609L74.1448 146.359C74.3676 146.637 74.65 146.862 74.9712 147.016C75.2924 147.17 75.644 147.25 76.0003 147.25C76.3565 147.25 76.7082 147.17 77.0294 147.016C77.3505 146.862 77.6329 146.637 77.8558 146.359L96.8558 122.609C97.1355 122.26 97.3108 121.839 97.3615 121.394C97.4122 120.949 97.3362 120.499 97.1423 120.096C96.9483 119.693 96.6443 119.352 96.2654 119.114C95.8864 118.876 95.4479 118.75 95.0003 118.75H85.5003V104.5H116.375C122.79 104.5 129.069 102.645 134.453 99.1571C139.837 95.6695 144.098 90.6988 146.721 84.8443C149.344 78.9898 150.217 72.5015 149.235 66.1619C148.253 59.8223 145.459 53.902 141.188 49.115ZM90.0603 123.5L76.0003 141.072L61.9403 123.5H68.8753C69.5052 123.5 70.1093 123.25 70.5547 122.804C71.0001 122.359 71.2503 121.755 71.2503 121.125V78.375H80.7503V121.125C80.7503 121.755 81.0005 122.359 81.4459 122.804C81.8913 123.25 82.4954 123.5 83.1253 123.5H90.0603ZM116.375 99.75H85.5003V76C85.5003 75.3701 85.2501 74.766 84.8047 74.3206C84.3593 73.8752 83.7552 73.625 83.1253 73.625H68.8753C68.2454 73.625 67.6413 73.8752 67.1959 74.3206C66.7505 74.766 66.5003 75.3701 66.5003 76V99.75H30.8753C25.5216 99.7492 20.3251 97.9398 16.1287 94.6153C11.9323 91.2908 8.982 86.6461 7.75636 81.4346C6.53072 76.2231 7.1016 70.7503 9.3764 65.9039C11.6512 61.0575 15.4965 57.1217 20.2887 54.7348C20.7439 54.5078 21.1142 54.1407 21.345 53.6875C21.5759 53.2343 21.6552 52.719 21.5712 52.2173C21.229 50.1758 21.336 48.0843 21.8849 46.0884C22.4337 44.0925 23.4111 42.2402 24.7489 40.6607C26.0868 39.0812 27.753 37.8124 29.6314 36.9427C31.5099 36.073 33.5553 35.6233 35.6253 35.625C36.5541 35.626 37.4807 35.7165 38.3922 35.8951C38.9303 36.0006 39.4883 35.9166 39.9716 35.6574C40.4548 35.3982 40.8335 34.9797 41.0433 34.4731C44.3219 26.5335 50.0466 19.846 57.3857 15.3823C64.7248 10.9186 73.2959 8.91121 81.8539 9.65171C90.4118 10.3922 98.5107 13.8421 104.974 19.5C111.437 25.158 115.928 32.7294 117.794 41.1142C117.901 41.5942 118.154 42.0293 118.518 42.3595C118.882 42.6897 119.34 42.8988 119.828 42.9578C127.037 43.8332 133.64 47.4277 138.289 53.0073C142.938 58.5869 145.281 65.7305 144.84 72.9794C144.399 80.2283 141.208 87.0355 135.918 92.0109C130.628 96.9862 123.638 99.7544 116.375 99.75Z" fill="#c3c9d6"/>
</svg>
