<svg width="152" height="152" viewBox="0 0 152 152" fill="none" xmlns="http://www.w3.org/2000/svg">
<g id="error_9715133 1">
<g id="Layer_25">
<g id="Group">
<g id="Group_2">
<path id="Vector" d="M120.348 114H16.9032C13.4114 114 10.5699 111.158 10.5699 107.666V37.9998H88.681C89.8463 37.9998 90.7921 37.054 90.7921 35.8887C90.7921 34.7233 89.8463 33.7776 88.681 33.7776H10.5699V27.4442C10.5699 23.9525 13.4114 21.1109 16.9032 21.1109H126.681C130.173 21.1109 133.014 23.9525 133.014 27.4442V33.7776H126.681C125.516 33.7776 124.57 34.7233 124.57 35.8887C124.57 37.054 125.516 37.9998 126.681 37.9998H133.014V59.1109C133.014 60.2762 133.96 61.222 135.125 61.222C136.291 61.222 137.237 60.2762 137.237 59.1109V27.4442C137.237 21.6239 132.501 16.8887 126.681 16.8887H16.9032C11.0829 16.8887 6.34766 21.6239 6.34766 27.4442V107.666C6.34766 113.487 11.0829 118.222 16.9032 118.222H120.348C121.513 118.222 122.459 117.276 122.459 116.111C122.459 114.946 121.515 114 120.348 114Z" fill="#D7D8DA"/>
<path id="Vector_2" d="M19.0135 29.5562C20.1794 29.5562 21.1246 28.611 21.1246 27.4451C21.1246 26.2792 20.1794 25.334 19.0135 25.334C17.8475 25.334 16.9023 26.2792 16.9023 27.4451C16.9023 28.611 17.8475 29.5562 19.0135 29.5562Z" fill="#D7D8DA"/>
<path id="Vector_3" d="M29.5701 29.5562C30.736 29.5562 31.6812 28.611 31.6812 27.4451C31.6812 26.2792 30.736 25.334 29.5701 25.334C28.4042 25.334 27.459 26.2792 27.459 27.4451C27.459 28.611 28.4042 29.5562 29.5701 29.5562Z" fill="#D7D8DA"/>
<path id="Vector_4" d="M40.1248 29.5562C41.2907 29.5562 42.2359 28.611 42.2359 27.4451C42.2359 26.2792 41.2907 25.334 40.1248 25.334C38.9588 25.334 38.0137 26.2792 38.0137 27.4451C38.0137 28.611 38.9588 29.5562 40.1248 29.5562Z" fill="#D7D8DA"/>
<path id="Vector_5" d="M120.347 35.8885C120.347 34.7231 119.401 33.7773 118.236 33.7773H97.1248C95.9594 33.7773 95.0137 34.7231 95.0137 35.8885C95.0137 37.0538 95.9594 37.9996 97.1248 37.9996H118.236C119.403 37.9996 120.347 37.0538 120.347 35.8885Z" fill="#D7D8DA"/>
<path id="Vector_6" d="M41.7988 66.9369C42.2125 67.3485 42.7509 67.5554 43.2913 67.5554C43.8318 67.5554 44.3722 67.3485 44.7839 66.9369L49.6247 62.0961L54.4654 66.9369C54.8792 67.3485 55.4176 67.5554 55.958 67.5554C56.4984 67.5554 57.0389 67.3485 57.4506 66.9369C58.276 66.1114 58.276 64.7772 57.4506 63.9518L52.6098 59.111L57.4506 54.2702C58.276 53.4448 58.276 52.1105 57.4506 51.2851C56.6251 50.4597 55.2909 50.4597 54.4654 51.2851L49.6247 56.1259L44.7839 51.2851C43.9584 50.4597 42.6242 50.4597 41.7988 51.2851C40.9733 52.1105 40.9733 53.4448 41.7988 54.2702L46.6396 59.111L41.7988 63.9518C40.9754 64.7772 40.9754 66.1114 41.7988 66.9369Z" fill="#D7D8DA"/>
<path id="Vector_7" d="M86.1328 66.9369C86.5465 67.3485 87.0849 67.5554 87.6253 67.5554C88.1658 67.5554 88.7062 67.3485 89.1179 66.9369L93.9586 62.0961L98.7994 66.9369C99.2132 67.3485 99.7515 67.5554 100.292 67.5554C100.832 67.5554 101.373 67.3485 101.785 66.9369C102.61 66.1114 102.61 64.7772 101.785 63.9518L96.9438 59.111L101.785 54.2702C102.61 53.4448 102.61 52.1105 101.785 51.2851C100.959 50.4597 99.6249 50.4597 98.7994 51.2851L93.9586 56.1259L89.1179 51.2851C88.2924 50.4597 86.9582 50.4597 86.1328 51.2851C85.3073 52.1105 85.3073 53.4448 86.1328 54.2702L90.9735 59.111L86.1328 63.9518C85.3094 64.7772 85.3094 66.1114 86.1328 66.9369Z" fill="#D7D8DA"/>
<path id="Vector_8" d="M32.0359 98.2819C32.6819 99.2488 33.9908 99.5127 34.964 98.8667C57.3376 83.9517 86.2493 83.9517 108.623 98.8667C108.982 99.1074 109.389 99.2214 109.79 99.2214C110.472 99.2214 111.141 98.8921 111.549 98.2819C112.195 97.3129 111.933 95.9998 110.964 95.3538C87.1697 79.4888 56.4172 79.4888 32.6228 95.3538C31.6517 95.9998 31.3899 97.3108 32.0359 98.2819Z" fill="#D7D8DA"/>
<path id="Vector_9" d="M141.251 69.4059C139.241 66.8895 136.239 65.4434 133.015 65.4434C129.792 65.4434 126.792 66.8874 124.78 69.4059C122.77 71.9245 122.025 75.1714 122.741 78.3148L130.957 114.468C131.177 115.428 132.032 116.11 133.015 116.11C133.999 116.11 134.856 115.428 135.074 114.468L143.29 78.3148C144.004 75.1714 143.261 71.9266 141.251 69.4059ZM139.173 77.3796L133.015 104.474L126.857 77.3796C126.429 75.4965 126.874 73.55 128.08 72.0406C129.285 70.5311 131.084 69.6656 133.015 69.6656C134.947 69.6656 136.746 70.5311 137.951 72.0406C139.157 73.55 139.6 75.4965 139.173 77.3796Z" fill="#D7D8DA"/>
<path id="Vector_10" d="M133.015 118.223C128.358 118.223 124.57 122.01 124.57 126.667C124.57 131.324 128.358 135.112 133.015 135.112C137.672 135.112 141.459 131.324 141.459 126.667C141.459 122.01 137.672 118.223 133.015 118.223ZM133.015 130.889C130.686 130.889 128.793 128.996 128.793 126.667C128.793 124.339 130.686 122.445 133.015 122.445C135.343 122.445 137.237 124.339 137.237 126.667C137.237 128.996 135.343 130.889 133.015 130.889Z" fill="#D7D8DA"/>
</g>
</g>
</g>
</g>
</svg>
