<svg width="16" height="21" viewBox="0 0 16 21" fill="none" xmlns="http://www.w3.org/2000/svg">
<path d="M7.99935 15.5827C7.51312 15.5827 7.0468 15.3895 6.70299 15.0457C6.35917 14.7019 6.16602 14.2356 6.16602 13.7493C6.16602 12.7318 6.98185 11.916 7.99935 11.916C8.48558 11.916 8.95189 12.1092 9.29571 12.453C9.63953 12.7968 9.83268 13.2631 9.83268 13.7493C9.83268 14.2356 9.63953 14.7019 9.29571 15.0457C8.95189 15.3895 8.48558 15.5827 7.99935 15.5827ZM13.4993 18.3327V9.16602H2.49935V18.3327H13.4993ZM13.4993 7.33268C13.9856 7.33268 14.4519 7.52584 14.7957 7.86965C15.1395 8.21347 15.3327 8.67979 15.3327 9.16602V18.3327C15.3327 18.8189 15.1395 19.2852 14.7957 19.629C14.4519 19.9729 13.9856 20.166 13.4993 20.166H2.49935C2.01312 20.166 1.5468 19.9729 1.20299 19.629C0.85917 19.2852 0.666016 18.8189 0.666016 18.3327V9.16602C0.666016 8.14852 1.48185 7.33268 2.49935 7.33268H3.41602V5.49935C3.41602 4.28377 3.8989 3.11798 4.75844 2.25844C5.61798 1.3989 6.78377 0.916016 7.99935 0.916016C8.60124 0.916016 9.19724 1.03457 9.75331 1.2649C10.3094 1.49524 10.8147 1.83284 11.2403 2.25844C11.6659 2.68404 12.0035 3.18931 12.2338 3.74538C12.4641 4.30146 12.5827 4.89746 12.5827 5.49935V7.33268H13.4993ZM7.99935 2.74935C7.27 2.74935 6.57053 3.03908 6.0548 3.55481C5.53908 4.07053 5.24935 4.77 5.24935 5.49935V7.33268H10.7493V5.49935C10.7493 4.77 10.4596 4.07053 9.94389 3.55481C9.42817 3.03908 8.72869 2.74935 7.99935 2.74935Z" fill="#8F9AA5"/>
</svg>
