<svg width="741" height="514" viewBox="0 0 741 514" fill="none" xmlns="http://www.w3.org/2000/svg">
<g clip-path="url(#clip0_688_973)">
<path d="M271.172 231.555L457.949 231.555V0.680511L271.172 0.680511V231.555Z" fill="white" stroke="#D1D1D1" stroke-width="1.5" stroke-linecap="round" stroke-linejoin="round"/>
<path d="M364.561 231.555V0.680664" stroke="#D1D1D1" stroke-width="1.5" stroke-linecap="round" stroke-linejoin="round"/>
<path d="M271.172 159.668H456.179" stroke="#D1D1D1" stroke-width="1.5" stroke-linecap="round" stroke-linejoin="round"/>
<path d="M396.506 175.591L433.483 90.7314" stroke="#D1D1D1" stroke-width="1.5" stroke-linecap="round" stroke-linejoin="round"/>
<path d="M410.787 88.0143L429.142 45.6992" stroke="#D1D1D1" stroke-width="1.5" stroke-linecap="round" stroke-linejoin="round"/>
<path d="M279.323 21.3623H114.896C93.1437 21.3623 75.5098 38.987 75.5098 60.7275V473.954C75.5098 495.695 93.1437 513.32 114.896 513.32H279.323C301.075 513.32 318.709 495.695 318.709 473.954V60.7275C318.709 38.987 301.075 21.3623 279.323 21.3623ZM306.646 470.053C306.646 486.325 293.447 499.517 277.166 499.517H117.053C100.771 499.517 87.5732 486.325 87.5732 470.053V63.8988C87.5732 47.6261 100.771 34.4347 117.053 34.4347H159.649V40.8843C159.649 46.5399 164.237 51.1249 169.895 51.1249H224.323C229.982 51.1249 234.569 46.5399 234.569 40.8843V34.4347H277.159C293.444 34.4347 306.646 47.6297 306.646 63.906V470.053Z" fill="#F32C40" stroke="#F32C40" stroke-width="1.5" stroke-linecap="round" stroke-linejoin="round"/>
<path d="M279.236 28.6328H122.07C101.628 28.6328 85.0566 45.1957 85.0566 65.6271V469.719C85.0566 490.15 101.628 506.713 122.07 506.713H279.236C299.678 506.713 316.25 490.15 316.25 469.719V65.6271C316.25 45.1957 299.678 28.6328 279.236 28.6328Z" fill="white"/>
<path d="M283.862 21.3623H119.435C97.6828 21.3623 80.0488 38.987 80.0488 60.7275V473.954C80.0488 495.695 97.6828 513.32 119.435 513.32H283.862C305.614 513.32 323.248 495.695 323.248 473.954V60.7275C323.248 38.987 305.614 21.3623 283.862 21.3623ZM311.185 470.053C311.185 486.325 297.986 499.517 281.705 499.517H121.592C105.31 499.517 92.1122 486.325 92.1122 470.053V63.8988C92.1122 47.6261 105.31 34.4347 121.592 34.4347H164.189V40.8843C164.189 46.5399 168.776 51.1249 174.434 51.1249H228.862C234.521 51.1249 239.108 46.5399 239.108 40.8843V34.4347H281.698C297.983 34.4347 311.185 47.6297 311.185 63.906V470.053Z" fill="white" stroke="#F32C40" stroke-width="1.5" stroke-linecap="round" stroke-linejoin="round"/>
<path d="M258.949 289.34C258.949 288.942 258.626 288.619 258.229 288.619H151.389L145.934 257.585C145.872 257.241 145.574 256.99 145.224 256.99H124.323C123.963 257.015 123.675 257.303 123.65 257.663C123.637 257.855 123.7 258.041 123.826 258.186C123.953 258.331 124.129 258.418 124.337 258.432H144.618L160.109 346.554C160.08 346.641 160.065 346.735 160.072 346.832C160.082 346.977 160.144 347.102 160.224 347.21L166.142 380.873C166.203 381.217 166.501 381.467 166.852 381.468H171.223C168.417 382.599 166.428 385.344 166.428 388.549C166.428 392.759 169.855 396.183 174.067 396.183C178.279 396.183 181.706 392.759 181.706 388.549C181.706 385.344 179.717 382.599 176.911 381.468H221.845C219.098 382.626 217.165 385.345 217.165 388.506C217.165 392.715 220.592 396.14 224.805 396.14C229.016 396.14 232.443 392.715 232.443 388.506C232.443 386.466 231.649 384.55 230.206 383.108C229.496 382.398 228.67 381.847 227.771 381.468H232.852C233.211 381.444 233.5 381.155 233.524 380.796C233.551 380.399 233.249 380.054 232.837 380.027H167.458L161.741 347.504H242.154C242.476 347.504 242.761 347.287 242.849 346.977L248.222 327.777C248.353 327.655 248.442 327.489 248.455 327.3C248.46 327.217 248.446 327.136 248.424 327.058L258.925 289.535C258.943 289.471 258.952 289.406 258.952 289.34H258.949ZM224.803 382.314C228.22 382.314 230.999 385.092 230.999 388.507C230.999 391.921 228.219 394.7 224.802 394.7C221.385 394.7 218.606 391.921 218.606 388.507C218.609 385.095 221.388 382.318 224.802 382.313L224.803 382.314ZM174.067 382.13V382.356C177.483 382.356 180.263 385.135 180.263 388.549C180.263 391.964 177.483 394.742 174.066 394.742C170.649 394.742 167.87 391.964 167.87 388.549C167.874 385.137 170.654 382.358 174.067 382.355V382.128V382.13ZM202.303 346.063V327.973H225.569L222.43 346.063H202.303ZM182.553 346.063L179.413 327.973H200.861V346.063H182.554H182.553ZM176.042 308.549H200.86V326.532H179.163L176.042 308.549ZM202.302 308.549H228.94L225.819 326.531H202.302V308.549ZM232.126 290.187L229.189 307.107H202.302V290.293C202.296 290.211 202.273 290.133 202.241 290.06H232.175C232.159 290.103 232.134 290.141 232.125 290.187H232.126ZM200.86 290.31V307.108H175.791L172.832 290.061H200.928C200.894 290.138 200.867 290.22 200.86 290.311V290.31ZM174.578 308.549L177.699 326.532H158.053L154.892 308.549H174.578ZM227.282 326.531L230.403 308.549H252.103L247.071 326.531H227.282ZM230.653 307.107L233.547 290.432C233.569 290.301 233.543 290.176 233.497 290.059H257.277L252.507 307.106H230.653V307.107ZM174.328 307.107H154.637L151.641 290.059H171.369L174.328 307.107ZM158.305 327.972H177.949L181.088 346.062H161.485L158.305 327.972ZM227.032 327.972H246.667L241.605 346.062H223.892L227.032 327.972Z" fill="#0B0B0C"/>
<path d="M258.723 302.117C270.168 302.117 279.447 292.844 279.447 281.405C279.447 269.966 270.168 260.692 258.723 260.692C247.278 260.692 238 269.966 238 281.405C238 292.844 247.278 302.117 258.723 302.117Z" fill="#F32C40" stroke="#0B0B0C" stroke-width="1.5" stroke-linecap="round" stroke-linejoin="round"/>
<path d="M246.49 281.743L255.191 289.882L271.298 273.329" stroke="white" stroke-width="1.5" stroke-linecap="round" stroke-linejoin="round"/>
<path d="M394.602 512.725C365.219 513.211 339.882 491.019 340.34 460.056C340.535 446.908 342.212 431.409 351.595 416.694C369.73 388.254 414.04 375.75 435.129 348.238C493.69 271.841 570.62 219.067 637.633 246.717C731.746 285.548 749.954 381.583 736.277 443.542C727.651 482.623 698.46 512.102 660.388 512.732L394.601 512.724L394.602 512.725Z" fill="white" stroke="#0B0B0C" stroke-width="1.5" stroke-linecap="round" stroke-linejoin="round"/>
<path d="M572.23 422.45C572.23 422.45 595.615 391.231 651.442 397.625L572.23 422.45Z" fill="white"/>
<path d="M572.23 422.45C572.23 422.45 595.615 391.231 651.442 397.625" stroke="#0B0B0C" stroke-width="1.5" stroke-linecap="round" stroke-linejoin="round"/>
<path d="M404.892 512.726H3.64648" stroke="#0B0B0C" stroke-width="1.5" stroke-linecap="round" stroke-linejoin="round"/>
<path d="M584.599 142.784C593.565 142.784 600.833 135.52 600.833 126.559C600.833 117.597 593.565 110.333 584.599 110.333C575.633 110.333 568.365 117.597 568.365 126.559C568.365 135.52 575.633 142.784 584.599 142.784Z" fill="#F32C40" stroke="#0B0B0C" stroke-width="1.5" stroke-linecap="round" stroke-linejoin="round"/>
<path d="M513.306 225.644C513.306 225.644 521.567 221.644 520.799 210.387C520.031 199.131 513.948 196.921 521.074 181.905C525.306 172.986 529.666 173.584 529.054 162.569C528.003 143.65 544.017 127.475 562.61 127.508C580.997 127.541 593.457 140.02 597.463 158.241C597.542 158.599 597.596 158.961 597.628 159.325C597.833 161.672 599.181 172.141 607.179 177.264C616.22 183.055 615.902 191.026 614.816 198.028C613.73 205.029 613.311 210.003 622.552 216.205C625.522 218.198 629.146 220.596 630.914 225.611C632.716 230.724 629.061 237.086 623.85 238.589C606.986 243.452 518.163 248.424 510.291 240.556C506.894 237.161 507.201 229.961 513.305 225.643L513.306 225.644Z" fill="#F32C40" stroke="#0B0B0C" stroke-width="1.5" stroke-linecap="round" stroke-linejoin="round"/>
<path d="M582.504 181.11C586.574 181.048 589.814 177.639 589.742 173.497C589.673 169.534 586.592 166.344 582.761 166.131C579.725 152.807 568.714 142.787 554.742 143.003C544.237 143.166 540.502 148.893 535.538 157.467C532.911 162.004 533.671 188.61 537.214 194.32C539.583 198.137 543.824 200.698 550.659 201.822L550.99 217.32C550.99 217.32 550.095 232.284 566.367 231.497C582.871 230.7 582.707 216.209 582.707 216.209C582.707 216.209 582.228 183.109 582.362 181.106C582.409 181.106 582.455 181.111 582.502 181.111L582.504 181.11Z" fill="#FDFDFF" stroke="#0B0B0C" stroke-width="1.5" stroke-linecap="round" stroke-linejoin="round"/>
<path d="M564.523 199.007L550.956 214.409L550.66 201.821C550.66 201.821 555.091 202.222 559.175 201.047C563.258 199.872 564.523 199.007 564.523 199.007Z" fill="#0B0B0C" stroke="#0B0B0C" stroke-width="1.5" stroke-linecap="round" stroke-linejoin="round"/>
<path d="M574.705 140.29C574.626 140.161 538.588 142.091 538.588 142.091L531.391 165.908C542.841 162.632 547.69 156.685 549.704 151.66C553.192 155.418 559.088 159.803 567.962 160.498C576.946 161.201 578.236 167.666 578.287 167.94C578.321 168.121 578.45 168.271 578.625 168.33C578.712 168.359 578.805 168.364 578.892 168.346C578.979 168.328 579.061 168.287 579.13 168.225C579.157 168.2 581.933 165.63 585.124 166.071C586.171 166.215 581.811 158.767 582.07 158.44C584.331 155.574 577.068 144.147 574.705 140.29Z" fill="#F32C40"/>
<path d="M534.146 165.026C543.639 161.637 547.86 156.261 549.704 151.66C553.192 155.418 559.089 159.804 567.963 160.498C576.947 161.201 578.237 167.666 578.288 167.94C578.321 168.122 578.451 168.271 578.625 168.33C578.712 168.359 578.805 168.365 578.892 168.347C578.979 168.328 579.062 168.288 579.13 168.225C579.157 168.201 581.803 165.566 584.654 166.492" stroke="#0B0B0C" stroke-width="1.5" stroke-linecap="round" stroke-linejoin="round"/>
<path d="M557.909 169.847L557.896 169.719C557.904 169.532 557.864 169.357 557.779 169.195C557.725 169.026 557.63 168.88 557.498 168.757C557.374 168.624 557.228 168.53 557.059 168.475C556.897 168.39 556.722 168.351 556.535 168.358L556.172 168.407C555.942 168.472 555.741 168.589 555.571 168.758L555.358 169.033C555.234 169.246 555.173 169.474 555.172 169.72L555.185 169.848C555.177 170.036 555.216 170.21 555.302 170.373C555.356 170.541 555.451 170.687 555.583 170.811C555.707 170.943 555.853 171.038 556.022 171.092C556.184 171.177 556.358 171.216 556.546 171.209L556.909 171.16C557.139 171.096 557.34 170.979 557.51 170.81L557.723 170.534C557.846 170.322 557.908 170.093 557.909 169.847Z" fill="#0B0B0C"/>
<path d="M542.081 170.961L542.068 170.833C542.075 170.645 542.036 170.471 541.951 170.308C541.897 170.139 541.802 169.993 541.67 169.87C541.546 169.737 541.4 169.643 541.231 169.589C541.069 169.503 540.894 169.464 540.706 169.472L540.344 169.521C540.114 169.585 539.913 169.702 539.743 169.871L539.53 170.147C539.406 170.359 539.345 170.588 539.344 170.834L539.356 170.961C539.349 171.149 539.388 171.323 539.474 171.486C539.528 171.655 539.622 171.801 539.755 171.924C539.878 172.057 540.025 172.151 540.194 172.205C540.356 172.291 540.53 172.33 540.718 172.323L541.08 172.274C541.311 172.209 541.512 172.092 541.681 171.923L541.895 171.647C542.018 171.435 542.08 171.206 542.081 170.961Z" fill="#0B0B0C"/>
<path d="M547.256 176.048L546.49 179.671C546.349 180.34 546.93 180.94 547.6 180.817L550.783 180.233" stroke="#0B0B0C" stroke-width="1.5" stroke-linecap="round" stroke-linejoin="round"/>
<path d="M555.293 164.172C555.293 164.172 559.87 162.56 562.226 165.607" stroke="#0B0B0C" stroke-width="1.5" stroke-linecap="round" stroke-linejoin="round"/>
<path d="M560.564 183.617C560.564 183.617 559.192 188.602 552.924 187.768" stroke="#0B0B0C" stroke-width="1.5" stroke-linecap="round" stroke-linejoin="round"/>
<path d="M537.504 166.016C537.504 166.016 541.034 163.134 544.443 164.906" stroke="#0B0B0C" stroke-width="1.5" stroke-linecap="round" stroke-linejoin="round"/>
<path d="M625.228 336.81C624.838 336.901 624.048 337.028 624.048 337.028L624.512 348.235L514.689 348.007L517.93 281.633L467.863 331.91C465.212 334.569 462.725 336.347 459.883 337.445C449.134 341.574 434.954 336.856 429.162 325.885C427.646 323.036 425.43 315.759 428.435 308.319L463.051 230.557L492.211 241.664L508.344 225.349C514.399 219.197 521.925 217.482 532.102 217.891L550.985 217.646C550.967 219.841 551.53 232.209 566.364 231.501C580.19 230.839 582.315 220.558 582.641 217.237L606.699 216.929C608.805 216.911 610.775 217.128 612.646 217.51V217.482C626.054 219.733 633.299 231.056 635.324 239.958L642.25 308.791L642.414 309.517C644.411 322.056 637.521 334.025 625.228 336.81Z" fill="#0B0B0C"/>
<path d="M540.899 244.275C540.815 242.842 540.676 241.44 540.611 240.14C540.423 236.433 540.81 233.574 542.158 233.37C545.804 232.817 549.731 243.317 553.824 254.686L545.765 263.769L540.899 244.274V244.275Z" fill="#FDFDFF" stroke="#0B0B0C" stroke-width="1.5" stroke-linecap="round" stroke-linejoin="round"/>
<path d="M545.008 262.336L543.559 218.001C543.501 216.247 542.056 214.857 540.3 214.868L522.116 214.977C520.307 214.988 518.856 216.478 518.895 218.286L519.846 262.255C519.884 263.999 521.297 265.4 523.041 265.424L541.723 265.682C543.572 265.707 545.068 264.184 545.007 262.337L545.008 262.336Z" fill="#F32C40" stroke="#0B0B0C" stroke-width="1.5" stroke-linecap="round" stroke-linejoin="round"/>
<path d="M539.057 221.104C540.144 221.104 541.024 220.224 541.024 219.138C541.024 218.052 540.144 217.172 539.057 217.172C537.971 217.172 537.09 218.052 537.09 219.138C537.09 220.224 537.971 221.104 539.057 221.104Z" fill="white" stroke="#0B0B0C" stroke-width="1.5" stroke-linecap="round" stroke-linejoin="round"/>
<path d="M547.957 257.734L545.045 243.768C545.045 243.768 521.43 233.705 519.555 233.548C517.169 233.349 516.098 237.034 517.791 238.309C518.717 239.007 519.931 239.42 520.825 239.76C519.003 239.054 517.774 240.19 517.215 241.533C516.192 243.99 519.3 245.293 519.656 245.481C516.76 245.481 515.623 248.651 518.383 250.537C518.565 250.662 518.933 250.831 519.146 250.931C518.876 251.232 517.634 251.23 517.382 253.401C517.159 255.309 519.217 256.158 520.135 256.76C521.222 257.472 543.472 270.887 543.472 270.887L547.958 257.735L547.957 257.734Z" fill="#FDFDFF"/>
<path d="M521.216 239.914C520.317 239.544 518.861 239.115 517.79 238.309C516.097 237.034 517.168 233.348 519.554 233.548C521.43 233.704 545.044 243.768 545.044 243.768" stroke="#0B0B0C" stroke-width="1.5" stroke-linecap="round" stroke-linejoin="round"/>
<path d="M530.291 244.057L520.826 239.761C519.003 239.054 517.773 240.19 517.215 241.533C516.192 243.99 519.3 245.293 519.656 245.481C516.76 245.481 515.623 248.651 518.383 250.537C518.565 250.662 518.932 250.831 519.146 250.931C518.876 251.232 517.634 251.23 517.382 253.401C517.159 255.309 519.217 256.159 520.135 256.76C521.925 257.934 554.826 277.72 554.826 277.72" stroke="#0B0B0C" stroke-width="1.5" stroke-linecap="round" stroke-linejoin="round"/>
<path d="M519.35 245.301L528.714 249.185" stroke="#0B0B0C" stroke-width="1.5" stroke-linecap="round" stroke-linejoin="round"/>
<path d="M518.881 250.81L527.329 254.687" stroke="#0B0B0C" stroke-width="1.5" stroke-linecap="round" stroke-linejoin="round"/>
<path d="M599.717 274.784L597.654 262.026" stroke="#FDFDFF" stroke-width="1.5" stroke-linecap="round" stroke-linejoin="round"/>
<path d="M507.054 204.725C505.692 204.416 504.639 204.861 503.513 205.941C503.432 206.013 503.35 206.095 503.268 206.195C503.223 206.231 503.168 206.276 503.123 206.331C503.114 206.349 503.087 206.376 503.068 206.394C502.369 205.623 501.661 204.979 501.107 204.698C501.035 204.652 500.962 204.625 500.89 204.598C500.281 204.389 499.619 204.18 498.956 203.99C498.656 203.899 498.348 203.817 498.048 203.736C497.694 203.627 497.34 203.536 497.004 203.454C497.267 203.209 497.531 202.964 497.794 202.729C499.083 201.558 500.345 200.487 501.688 199.408C502.061 199.099 502.442 198.8 502.832 198.5C503.54 197.947 504.285 197.393 505.075 196.803C505.392 196.568 505.728 196.323 506.064 196.078C506.346 195.878 506.636 195.669 506.936 195.451C508.043 194.653 507.353 192.366 505.801 192.675C502.478 193.337 494.199 196.658 485.837 205.278C485.692 205.432 485.529 205.605 485.356 205.805C481.344 210.36 472.637 224.569 467.926 232.418H467.944L494.171 242.408C495.506 238.361 501.924 219.07 503.504 216.112C503.913 215.35 504.312 214.615 504.702 213.889C504.721 213.862 504.73 213.826 504.748 213.798C504.793 213.817 504.83 213.826 504.866 213.835C505.002 213.88 505.129 213.907 505.256 213.935C505.274 213.935 505.302 213.944 505.32 213.944C505.456 213.971 505.583 213.98 505.701 213.98C505.973 213.98 506.219 213.925 506.409 213.817C506.754 213.599 506.936 213.19 506.881 212.592C506.872 212.519 506.863 212.446 506.854 212.383C506.8 212.02 506.663 211.594 506.446 211.104C506.4 211.004 506.355 210.904 506.3 210.804V210.795C506.318 210.759 506.337 210.732 506.355 210.695C506.373 210.659 506.391 210.632 506.4 210.595C506.509 210.387 506.609 210.178 506.7 209.969C507.036 209.271 507.317 208.608 507.535 208.019C507.644 207.692 507.744 207.383 507.816 207.102C508.152 205.795 507.998 204.933 507.054 204.725Z" fill="#FDFDFF"/>
<path d="M506.359 210.698C507.956 207.446 508.694 205.089 507.057 204.721C505.534 204.379 504.403 204.97 503.125 206.334" stroke="#0B0B0C" stroke-width="1.5" stroke-linecap="round" stroke-linejoin="round"/>
<path d="M494.172 242.408C495.506 238.361 501.925 219.071 503.505 216.113C503.913 215.351 504.313 214.616 504.703 213.89" stroke="#0B0B0C" stroke-width="1.5" stroke-linecap="round" stroke-linejoin="round"/>
<path d="M467.943 232.418C473.645 223.026 481.824 209.87 485.356 205.805C485.528 205.605 485.692 205.432 485.837 205.278C494.198 196.658 502.478 193.337 505.8 192.675C507.353 192.366 508.043 194.653 506.935 195.451C506.636 195.669 506.345 195.878 506.064 196.078C505.728 196.323 505.392 196.568 505.074 196.803C504.284 197.393 503.54 197.947 502.832 198.5C502.441 198.809 502.06 199.108 501.688 199.408C500.344 200.487 499.082 201.558 497.793 202.729C497.575 202.919 497.357 203.119 497.14 203.318" stroke="#0B0B0C" stroke-width="1.5" stroke-linecap="round" stroke-linejoin="round"/>
<path d="M494.035 202.729C494.035 202.729 498.071 203.621 500.888 204.601C502.368 205.116 505.209 208.926 505.863 210.009C508.109 213.725 506.351 214.769 503.881 213.412C501.559 212.135 500.479 210.219 498.166 209.312" stroke="#0B0B0C" stroke-width="1.5" stroke-linecap="round" stroke-linejoin="round"/>
<path d="M490.443 206.376C490.443 206.376 495.042 207.772 497.771 209.078C499.184 209.754 501.531 213.408 501.922 214.611C502.522 216.458 502.413 217.473 501.031 217.681C499.056 217.977 497.36 214.115 495.046 213.207C492.887 212.36 486.82 210.645 486.82 210.645" stroke="#0B0B0C" stroke-width="1.5" stroke-linecap="round" stroke-linejoin="round"/>
<path d="M491.924 212.249C495.484 214.624 495.61 216.615 495.775 217.651C496.056 219.412 494.926 220.056 493.743 219.384C492.17 218.489 489.952 216.369 488.984 216.074C486.973 215.458 483.564 215.197 483.564 215.197" stroke="#0B0B0C" stroke-width="1.5" stroke-linecap="round" stroke-linejoin="round"/>
<path d="M477.18 300.021L499.079 244.28L494.171 242.407" stroke="#FDFDFF" stroke-width="1.5" stroke-linecap="round" stroke-linejoin="round"/>
<path d="M517.934 281.63L518.741 269.435" stroke="#FDFDFF" stroke-width="1.5" stroke-linecap="round" stroke-linejoin="round"/>
<path d="M625.23 336.814C622.655 337.4 620.078 337.523 617.591 337.24C614.046 336.836 610.703 335.388 607.835 333.268L534.646 275.532L556.772 245.3L615.611 286.372" fill="#0B0B0C"/>
<path d="M625.23 336.814C622.655 337.4 620.078 337.523 617.591 337.24C614.046 336.836 610.703 335.388 607.835 333.268L534.646 275.532L556.772 245.3L615.611 286.372" stroke="#FDFDFF" stroke-width="1.5" stroke-linecap="round" stroke-linejoin="round"/>
<path d="M260.546 445.178L214.824 470.586L233.158 497.532L279.308 475.501L260.546 445.178Z" fill="#FDFDFF" stroke="#0B0B0C" stroke-width="1.5" stroke-linecap="round" stroke-linejoin="round"/>
<path d="M212.104 512.538L205.478 502.798C207.019 500.369 208.988 497.58 208.988 497.58L201.533 497.001L174.572 457.374C174.572 457.374 184.023 443.805 195.365 458.993C207.354 475.046 228.241 461.868 228.241 461.868L236.322 473.744L231.122 482.607L241.595 481.494L248.157 491.14L212.103 512.537L212.104 512.538Z" fill="white" stroke="#0B0B0C" stroke-width="1.5" stroke-linecap="round" stroke-linejoin="round"/>
<path d="M566.707 412.172C559.822 412.058 476.109 408.61 440.188 408.559L261.796 493.11L234.52 439.591L426.939 337.973C426.939 337.973 563.383 345.252 561.121 346.996L566.707 412.172Z" fill="#F32C40"/>
<path d="M566.707 412.172C559.822 412.058 476.109 408.61 440.188 408.559L261.796 493.11L234.52 439.591L426.939 337.973C426.939 337.973 563.383 345.252 561.121 346.996L566.707 412.172Z" stroke="#0B0B0C" stroke-width="1.5" stroke-linecap="round" stroke-linejoin="round"/>
<path d="M339.702 438.043L314.717 486.701H347.32L371.954 445.95L339.702 438.043Z" fill="#FDFDFF" stroke="#0B0B0C" stroke-width="1.5" stroke-linecap="round" stroke-linejoin="round"/>
<path d="M346.991 512.538H335.207C334.064 509.897 332.863 506.703 332.863 506.703L328.192 512.538H280.246C280.246 512.538 274.334 497.097 293.279 496.263C313.301 495.382 319.822 473.682 319.822 473.682L332.836 475.029L337.244 484.31L342.213 475.936L354.539 476.975L346.992 512.539L346.991 512.538Z" fill="white" stroke="#0B0B0C" stroke-width="1.5" stroke-linecap="round" stroke-linejoin="round"/>
<path d="M623.996 348.238L577.481 347.32L445.568 312.892C423.732 305.664 405.677 307.503 392.29 326.486L313.83 452.899L370.12 477.751L435.059 375.006L548.809 409.373C554.348 411.047 560.085 411.985 565.869 412.15C566.239 412.161 566.529 412.168 566.708 412.171C578.41 412.364 593.636 409.871 606.39 397.916C620.517 384.675 624.965 367.316 623.996 348.237V348.238Z" fill="#F32C40"/>
<path d="M623.996 348.238L577.481 347.32L445.568 312.892C423.732 305.664 405.677 307.503 392.29 326.486L313.83 452.899L370.12 477.751L435.059 375.006L548.809 409.373C554.348 411.047 560.085 411.985 565.869 412.15C566.239 412.161 566.529 412.168 566.708 412.171C578.41 412.364 593.636 409.871 606.39 397.916C620.517 384.675 624.965 367.316 623.996 348.237V348.238Z" stroke="#0B0B0C" stroke-width="1.5" stroke-linecap="round" stroke-linejoin="round"/>
<path d="M229.12 111.06V112.54H225.32V125H223.5V112.54H219.68V111.06H229.12ZM232.3 112.26C231.954 112.26 231.66 112.14 231.42 111.9C231.18 111.66 231.06 111.367 231.06 111.02C231.06 110.673 231.18 110.38 231.42 110.14C231.66 109.9 231.954 109.78 232.3 109.78C232.634 109.78 232.914 109.9 233.14 110.14C233.38 110.38 233.5 110.673 233.5 111.02C233.5 111.367 233.38 111.66 233.14 111.9C232.914 112.14 232.634 112.26 232.3 112.26ZM233.18 114.04V125H231.36V114.04H233.18ZM240.802 113.86C241.749 113.86 242.576 114.067 243.282 114.48C244.002 114.893 244.536 115.413 244.882 116.04V114.04H246.722V125.24C246.722 126.24 246.509 127.127 246.082 127.9C245.656 128.687 245.042 129.3 244.242 129.74C243.456 130.18 242.536 130.4 241.482 130.4C240.042 130.4 238.842 130.06 237.882 129.38C236.922 128.7 236.356 127.773 236.182 126.6H237.982C238.182 127.267 238.596 127.8 239.222 128.2C239.849 128.613 240.602 128.82 241.482 128.82C242.482 128.82 243.296 128.507 243.922 127.88C244.562 127.253 244.882 126.373 244.882 125.24V122.94C244.522 123.58 243.989 124.113 243.282 124.54C242.576 124.967 241.749 125.18 240.802 125.18C239.829 125.18 238.942 124.94 238.142 124.46C237.356 123.98 236.736 123.307 236.282 122.44C235.829 121.573 235.602 120.587 235.602 119.48C235.602 118.36 235.829 117.38 236.282 116.54C236.736 115.687 237.356 115.027 238.142 114.56C238.942 114.093 239.829 113.86 240.802 113.86ZM244.882 119.5C244.882 118.673 244.716 117.953 244.382 117.34C244.049 116.727 243.596 116.26 243.022 115.94C242.462 115.607 241.842 115.44 241.162 115.44C240.482 115.44 239.862 115.6 239.302 115.92C238.742 116.24 238.296 116.707 237.962 117.32C237.629 117.933 237.462 118.653 237.462 119.48C237.462 120.32 237.629 121.053 237.962 121.68C238.296 122.293 238.742 122.767 239.302 123.1C239.862 123.42 240.482 123.58 241.162 123.58C241.842 123.58 242.462 123.42 243.022 123.1C243.596 122.767 244.049 122.293 244.382 121.68C244.716 121.053 244.882 120.327 244.882 119.5ZM254.578 125.18C253.551 125.18 252.618 124.947 251.778 124.48C250.951 124.013 250.298 123.353 249.818 122.5C249.351 121.633 249.118 120.633 249.118 119.5C249.118 118.38 249.358 117.393 249.838 116.54C250.331 115.673 250.998 115.013 251.838 114.56C252.678 114.093 253.618 113.86 254.658 113.86C255.698 113.86 256.638 114.093 257.478 114.56C258.318 115.013 258.978 115.667 259.458 116.52C259.951 117.373 260.198 118.367 260.198 119.5C260.198 120.633 259.944 121.633 259.438 122.5C258.944 123.353 258.271 124.013 257.418 124.48C256.564 124.947 255.618 125.18 254.578 125.18ZM254.578 123.58C255.231 123.58 255.844 123.427 256.418 123.12C256.991 122.813 257.451 122.353 257.798 121.74C258.158 121.127 258.338 120.38 258.338 119.5C258.338 118.62 258.164 117.873 257.818 117.26C257.471 116.647 257.018 116.193 256.458 115.9C255.898 115.593 255.291 115.44 254.638 115.44C253.971 115.44 253.358 115.593 252.798 115.9C252.251 116.193 251.811 116.647 251.478 117.26C251.144 117.873 250.978 118.62 250.978 119.5C250.978 120.393 251.138 121.147 251.458 121.76C251.791 122.373 252.231 122.833 252.778 123.14C253.324 123.433 253.924 123.58 254.578 123.58Z" fill="#0B0B0C"/>
<path d="M160.93 159.713L156.252 172.845L154.537 172.234L156.658 166.281L149.97 163.898L147.849 169.852L146.134 169.241L150.812 156.109L152.527 156.72L150.473 162.485L157.161 164.868L159.215 159.103L160.93 159.713ZM172.013 166.825L168.336 177.15L166.621 176.539L167.165 175.013C166.65 175.424 166.044 175.675 165.346 175.767C164.666 175.85 163.974 175.766 163.27 175.515C162.466 175.229 161.802 174.808 161.278 174.254C160.758 173.686 160.429 173.003 160.289 172.203C160.162 171.407 160.268 170.532 160.608 169.578L162.763 163.53L164.458 164.134L162.385 169.956C162.022 170.973 162 171.85 162.318 172.586C162.641 173.309 163.248 173.83 164.14 174.148C165.057 174.474 165.879 174.449 166.608 174.072C167.337 173.694 167.894 172.966 168.279 171.885L170.299 166.215L172.013 166.825ZM172.442 172.753C172.818 171.698 173.36 170.851 174.069 170.212C174.783 169.56 175.588 169.146 176.486 168.971C177.396 168.799 178.31 168.877 179.227 169.204C180.131 169.526 180.846 170 181.373 170.627C181.9 171.253 182.222 171.92 182.338 172.626L183.01 170.742L184.743 171.36L181.065 181.684L179.332 181.067L180.016 179.145C179.462 179.627 178.775 179.949 177.953 180.109C177.149 180.261 176.301 180.178 175.409 179.861C174.492 179.534 173.744 179.013 173.164 178.296C172.584 177.58 172.226 176.738 172.089 175.769C171.953 174.801 172.071 173.795 172.442 172.753ZM181.177 175.886C181.455 175.107 181.539 174.373 181.431 173.683C181.323 172.994 181.052 172.402 180.62 171.908C180.204 171.406 179.676 171.041 179.035 170.813C178.395 170.585 177.757 170.527 177.122 170.641C176.487 170.754 175.91 171.044 175.39 171.51C174.87 171.976 174.472 172.598 174.194 173.377C173.912 174.168 173.823 174.915 173.927 175.617C174.035 176.307 174.297 176.903 174.713 177.405C175.133 177.894 175.663 178.253 176.304 178.481C176.944 178.709 177.582 178.766 178.217 178.653C178.869 178.531 179.455 178.238 179.975 177.772C180.499 177.293 180.9 176.665 181.177 175.886ZM201.394 177.291L194.494 186.468L192.723 185.837L193.156 176.756L187.749 184.066L185.978 183.435L186.415 171.956L188.168 172.58L187.454 182.092L193.104 174.338L194.856 174.963L194.268 184.541L199.698 176.687L201.394 177.291ZM210.817 186.02C210.701 186.346 210.559 186.685 210.391 187.036L202.139 184.096C201.84 185.136 201.901 186.057 202.323 186.858C202.763 187.652 203.434 188.209 204.339 188.532C205.08 188.795 205.756 188.845 206.366 188.681C206.994 188.508 207.511 188.168 207.918 187.662L209.764 188.32C209.134 189.214 208.293 189.827 207.241 190.16C206.192 190.48 205.053 190.421 203.822 189.982C202.842 189.633 202.041 189.1 201.419 188.383C200.81 187.671 200.428 186.834 200.275 185.874C200.126 184.901 200.242 183.88 200.622 182.813C201.003 181.745 201.549 180.885 202.263 180.234C202.976 179.582 203.792 179.179 204.71 179.025C205.646 178.863 206.616 178.961 207.621 179.319C208.6 179.668 209.391 180.19 209.992 180.885C210.594 181.581 210.961 182.377 211.095 183.274C211.245 184.163 211.153 185.078 210.817 186.02ZM209.174 185.031C209.406 184.378 209.461 183.768 209.338 183.2C209.219 182.62 208.951 182.121 208.533 181.703C208.133 181.277 207.631 180.957 207.028 180.742C206.162 180.434 205.322 180.446 204.51 180.779C203.71 181.117 203.092 181.76 202.655 182.709L209.174 185.031ZM216.261 180.698C215.934 180.582 215.698 180.37 215.553 180.064C215.407 179.757 215.393 179.44 215.509 179.114C215.625 178.787 215.837 178.551 216.143 178.406C216.45 178.26 216.767 178.246 217.093 178.362C217.407 178.474 217.631 178.681 217.764 178.983C217.909 179.29 217.924 179.606 217.808 179.933C217.691 180.259 217.48 180.495 217.173 180.641C216.879 180.791 216.575 180.81 216.261 180.698ZM216.493 182.67L212.815 192.995L211.1 192.384L214.778 182.059L216.493 182.67Z" fill="#0B0B0C"/>
<path d="M175.323 254.45L177.437 258.602L181.964 256.298L182.645 257.634L178.118 259.939L180.295 264.217L185.357 261.64L186.038 262.976L179.354 266.379L173.02 253.939L179.704 250.536L180.384 251.873L175.323 254.45ZM188.187 249.359C189.375 248.754 190.522 248.626 191.628 248.976C192.728 249.314 193.622 250.16 194.312 251.515L197.243 257.271L195.639 258.088L192.826 252.563C192.33 251.589 191.708 250.97 190.961 250.707C190.207 250.432 189.409 250.51 188.565 250.939C187.71 251.375 187.163 251.99 186.924 252.785C186.697 253.574 186.844 254.479 187.364 255.501L190.114 260.901L188.492 261.727L183.519 251.96L185.141 251.134L185.849 252.524C185.916 251.862 186.153 251.255 186.56 250.703C186.979 250.146 187.522 249.698 188.187 249.359ZM197.458 247.13C197.494 246.408 197.734 245.703 198.176 245.014C198.624 244.307 199.27 243.739 200.113 243.309C200.981 242.868 201.871 242.676 202.784 242.735C203.708 242.788 204.566 243.092 205.357 243.647C206.143 244.19 206.789 244.96 207.297 245.958C207.799 246.944 208.045 247.926 208.034 248.905C208.024 249.883 207.771 250.767 207.275 251.558C206.792 252.342 206.117 252.955 205.249 253.397C204.418 253.82 203.587 254.011 202.758 253.97C201.935 253.91 201.215 253.686 200.598 253.297L203.873 259.731L202.252 260.557L194.92 246.156L196.541 245.33L197.458 247.13ZM205.64 246.802C205.265 246.065 204.789 245.499 204.214 245.104C203.639 244.709 203.023 244.499 202.367 244.473C201.723 244.442 201.098 244.581 200.492 244.89C199.898 245.192 199.421 245.622 199.061 246.179C198.707 246.718 198.518 247.346 198.493 248.062C198.475 248.759 198.65 249.471 199.019 250.196C199.394 250.932 199.872 251.504 200.453 251.911C201.041 252.301 201.659 252.517 202.31 252.56C202.966 252.585 203.591 252.446 204.185 252.144C204.791 251.835 205.271 251.411 205.625 250.872C205.984 250.315 206.174 249.687 206.192 248.989C206.205 248.28 206.021 247.551 205.64 246.802ZM211.721 237.377C212.458 237.002 213.205 236.824 213.962 236.842C214.714 236.848 215.416 237.082 216.069 237.542C216.735 237.996 217.297 238.675 217.757 239.578L220.688 245.335L219.084 246.152L216.271 240.627C215.775 239.652 215.153 239.034 214.406 238.771C213.652 238.496 212.854 238.573 212.01 239.003C211.155 239.438 210.608 240.054 210.369 240.848C210.142 241.637 210.289 242.542 210.809 243.564L213.559 248.965L211.937 249.79L205.222 236.601L206.844 235.776L209.294 240.588C209.36 239.925 209.603 239.315 210.023 238.758C210.454 238.194 211.02 237.734 211.721 237.377ZM220.227 239.375C219.718 238.377 219.476 237.401 219.499 236.447C219.516 235.481 219.769 234.611 220.258 233.839C220.759 233.06 221.443 232.45 222.311 232.008C223.166 231.572 224.003 231.378 224.82 231.426C225.637 231.474 226.342 231.698 226.936 232.099L226.028 230.317L227.668 229.482L232.641 239.249L231.001 240.084L230.075 238.266C230.045 239 229.806 239.72 229.358 240.427C228.915 241.116 228.273 241.675 227.429 242.105C226.562 242.546 225.668 242.732 224.75 242.661C223.831 242.59 222.973 242.271 222.176 241.705C221.378 241.138 220.729 240.362 220.227 239.375ZM228.506 235.183C228.13 234.446 227.655 233.88 227.08 233.485C226.505 233.089 225.889 232.879 225.233 232.854C224.583 232.811 223.954 232.944 223.348 233.253C222.742 233.561 222.263 233.985 221.909 234.524C221.555 235.063 221.368 235.682 221.35 236.38C221.331 237.078 221.509 237.795 221.884 238.532C222.265 239.28 222.747 239.858 223.328 240.265C223.903 240.661 224.516 240.88 225.166 240.923C225.811 240.954 226.436 240.815 227.042 240.507C227.648 240.198 228.128 239.774 228.481 239.235C228.841 238.678 229.03 238.05 229.049 237.352C229.062 236.643 228.881 235.92 228.506 235.183ZM238.921 236.254C238.172 236.635 237.437 236.852 236.716 236.905C235.989 236.946 235.338 236.829 234.764 236.552C234.183 236.265 233.724 235.833 233.386 235.257L235.061 234.404C235.357 234.867 235.785 235.15 236.346 235.253C236.92 235.35 237.539 235.229 238.204 234.891C238.822 234.576 239.24 234.191 239.457 233.737C239.674 233.282 239.677 232.846 239.465 232.431C239.248 232.003 238.897 231.785 238.414 231.776C237.925 231.756 237.231 231.848 236.332 232.051C235.511 232.23 234.82 232.342 234.259 232.388C233.705 232.416 233.165 232.324 232.638 232.114C232.118 231.885 231.698 231.456 231.377 230.826C231.123 230.327 231.038 229.794 231.124 229.227C231.209 228.659 231.465 228.118 231.89 227.602C232.31 227.074 232.87 226.632 233.571 226.275C234.652 225.724 235.665 225.553 236.608 225.761C237.552 225.969 238.29 226.536 238.821 227.462L237.199 228.288C236.903 227.795 236.487 227.491 235.949 227.376C235.424 227.254 234.846 227.354 234.216 227.675C233.634 227.971 233.234 228.332 233.017 228.757C232.799 229.182 232.793 229.596 232.999 230C233.162 230.321 233.399 230.537 233.71 230.648C234.027 230.741 234.373 230.774 234.748 230.748C235.13 230.703 235.639 230.616 236.276 230.486C237.074 230.319 237.741 230.219 238.277 230.185C238.808 230.14 239.321 230.222 239.818 230.433C240.326 230.638 240.737 231.035 241.052 231.623C241.324 232.158 241.42 232.715 241.341 233.294C241.262 233.873 241.012 234.426 240.593 234.954C240.179 235.464 239.622 235.897 238.921 236.254ZM250.928 223.318C251.085 223.627 251.234 223.963 251.374 224.326L243.567 228.3C244.116 229.232 244.827 229.82 245.7 230.065C246.578 230.291 247.445 230.186 248.3 229.75C249.001 229.393 249.502 228.937 249.802 228.38C250.108 227.805 250.217 227.196 250.129 226.553L251.875 225.664C252.092 226.735 251.959 227.768 251.477 228.761C250.99 229.743 250.163 230.53 248.999 231.123C248.072 231.595 247.135 231.81 246.186 231.769C245.25 231.723 244.38 231.425 243.577 230.876C242.768 230.315 242.106 229.53 241.592 228.52C241.078 227.51 240.829 226.522 240.846 225.556C240.863 224.59 241.131 223.72 241.65 222.947C242.175 222.156 242.912 221.519 243.863 221.035C244.79 220.563 245.713 220.348 246.631 220.389C247.55 220.43 248.381 220.71 249.124 221.229C249.873 221.731 250.474 222.427 250.928 223.318ZM249.08 223.832C248.766 223.215 248.36 222.755 247.863 222.455C247.359 222.142 246.813 221.994 246.223 222.011C245.638 222.009 245.061 222.153 244.49 222.444C243.671 222.861 243.103 223.479 242.787 224.299C242.482 225.112 242.525 226.003 242.913 226.972L249.08 223.832Z" fill="#0B0B0C"/>
</g>
<defs>
<clipPath id="clip0_688_973">
<rect width="741" height="514" fill="white"/>
</clipPath>
</defs>
</svg>
